# xmcd
#
# Track frame offsets:
#	150
#	11592
#	28642
#	42340
#	58845
#	73113
#	88692
#	102097
#	119736
#	134151
#	149340
#	162320
#	173707
#	183190
#	197175
#	214077
#	230454
#	246768
#	261617
#	271586
#	290033
#
# Disc length: 4087 seconds
#
# Revision: 0
# Processed by: cddbd v1.5.2PL0 Copyright (c) Steve Scherf et al.
# Submitted via: EZCDAudioConverter 7.1.0.1
#
DISCID=470ff515
DTITLE=Nu Urban Traxx Volume 265 US
DYEAR=2019
DGENRE=blues
TTITLE0=Big Sean ft. A$AP Ferg and Hit Boy - Bezerk
TTITLE1=Chance The Rapper ft. MadeinTYO and DaBaby - Hot Shower
TTITLE2=Mustard ft. Roddy Ricch - Ballin'
TTITLE3=Swae Lee ft. Drake - Won't Be Late
TTITLE4=Fetty Wap ft. Monty - Birthday
TTITLE5=Fat Joe ft. Cardi B and Anuell AA - Yes
TTITLE6=Migos, Karol G, Snoop Dogg and Rock Mafia - My Family
TTITLE7=Snoop Dogg ft. Jermaine Dupri, Ozuna and Slim Jxmmi - Do It When I'm I
TTITLE7=n It
TTITLE8=Arin Ray ft. Kehlani - Change
TTITLE9=Jeezy ft. Meek Mill - MLK Blvd
TTITLE10=K Camp - Lottery
TTITLE11=Stunna 4 Vegas ft. DaBaby - Ashley
TTITLE12=Vince Staples - So What?
TTITLE13=DJ Snake and J. Balvin ft. Tyga - Loco Contigo
TTITLE14=Young Dolph and Key Glock - Water On Water On Water
TTITLE15=Gallant - Sleep On It
TTITLE16=Pop Smoke - Welcome To The Party [Super Clean Version]
TTITLE17=Odie - North Face
TTITLE18=HEX - Paranoia
TTITLE19=Johnny Gill ft. Ralph Tresvant - Perfect
TTITLE20=Quality Control, City Girls and Stefflon Don ft. Renni Rucci and Mustard 
TTITLE20=/ Like That
EXTD=
EXTT0=
EXTT1=
EXTT2=
EXTT3=
EXTT4=
EXTT5=
EXTT6=
EXTT7=
EXTT8=
EXTT9=
EXTT10=
EXTT11=
EXTT12=
EXTT13=
EXTT14=
EXTT15=
EXTT16=
EXTT17=
EXTT18=
EXTT19=
EXTT20=
PLAYORDER=
